<svg width="40" height="40" viewBox="0 0 40 40" fill="none" xmlns="http://www.w3.org/2000/svg">
<path d="M28.9375 28.0125C27.5562 25.6125 24.9625 24 22 24H18C15.0375 24 12.4438 25.6125 11.0625 28.0125C13.2625 30.4625 16.45 32 20 32C23.55 32 26.7375 30.4563 28.9375 28.0125ZM4 20C4 11.1625 11.1625 4 20 4C28.8375 4 36 11.1625 36 20C36 28.8375 28.8375 36 20 36C11.1625 36 4 28.8375 4 20ZM20 21C22.4875 21 24.5 18.9875 24.5 16.5C24.5 14.0125 22.4875 12 20 12C17.5125 12 15.5 14.0125 15.5 16.5C15.5 18.9875 17.5125 21 20 21Z" fill="black"/>
</svg>
