<svg viewBox="0 0 20 20" xmlns="http://www.w3.org/2000/svg" width="18" height="18" fill="#009DDD"><path d="M16.91 13.16a.833.833 0 0 1 1.179 1.18l-3.75 3.75a.833.833 0 0 1-1.178 0l-1.667-1.667a.833.833 0 1 1 1.178-1.179l1.078 1.078 3.16-3.161ZM12.5 5v-.833h-5V5a.833.833 0 0 1-1.667 0v-.83c-.371.002-.663.008-.907.028-.366.03-.553.084-.683.15-.314.16-.569.415-.728.729-.067.13-.121.317-.15.682-.032.375-.032.86-.032 1.574V7.5h13.334v-.167c0-.713 0-1.199-.031-1.574a2.26 2.26 0 0 0-.104-.572l-.047-.11a1.667 1.667 0 0 0-.614-.665l-.114-.064c-.13-.066-.318-.12-.683-.15-.245-.02-.536-.026-.908-.029V5A.833.833 0 1 1 12.5 5Zm5.833 5.417a.833.833 0 0 1-1.666 0v-1.25H3.332v5.167c0 .713 0 1.198.031 1.573.03.366.084.553.15.683l.065.115c.16.261.39.474.664.614l.11.047c.125.044.299.08.573.103.375.03.86.031 1.574.031H10a.833.833 0 1 1 0 1.667H6.5c-.687 0-1.251 0-1.71-.037-.41-.033-.791-.1-1.15-.255l-.154-.071a3.335 3.335 0 0 1-1.328-1.227l-.129-.23c-.206-.404-.288-.835-.326-1.304-.037-.458-.036-1.023-.036-1.71v-7c0-.686-.001-1.25.036-1.71.038-.468.12-.899.326-1.303l.129-.23c.32-.522.78-.947 1.328-1.227l.153-.072c.36-.154.741-.22 1.15-.254.302-.025.648-.032 1.044-.035v-.835a.833.833 0 0 1 1.667 0V2.5h5v-.833a.833.833 0 0 1 1.666 0v.835c.397.003.743.01 1.044.035.468.038.9.12 1.303.326l.23.129c.522.32.948.779 1.227 1.328l.072.153c.154.36.221.74.255 1.15.037.46.036 1.024.036 1.71v3.084Z"></path></svg>