<svg width="40" height="40" viewBox="0 0 40 40" fill="none" xmlns="http://www.w3.org/2000/svg">
<path d="M40 20.0745C40 8.98647 31.0469 0 20 0C8.95312 0 0 8.98647 0 20.0745C0 29.4844 6.46094 37.3887 15.1719 39.5609V26.2066H11.0469V20.0745H15.1719V17.4319C15.1719 10.6018 18.25 7.43384 24.9375 7.43384C26.2031 7.43384 28.3906 7.68477 29.2891 7.9357V13.4876C28.8203 13.4405 28 13.4091 26.9766 13.4091C23.6953 13.4091 22.4297 14.656 22.4297 17.8945V20.0745H28.9609L27.8359 26.2066H22.4219V40C32.3281 38.8002 40 30.3391 40 20.0745Z" fill="black"/>
</svg>
