<svg width="105" height="95" viewBox="0 0 105 95" fill="none" xmlns="http://www.w3.org/2000/svg">
<g clip-path="url(#clip0_122_1113)">
<path d="M12.8168 68.3489C11.6664 68.3489 10.563 68.7228 9.74947 69.3883C8.93595 70.0538 8.47892 70.9565 8.47892 71.8976V91.4158C8.47892 92.3569 8.93595 93.2596 9.74947 93.9251C10.563 94.5906 11.6664 94.9645 12.8168 94.9645C13.9673 94.9645 15.0707 94.5906 15.8842 93.9251C16.6977 93.2596 17.1548 92.3569 17.1548 91.4158V71.8976C17.1548 70.9565 16.6977 70.0538 15.8842 69.3883C15.0707 68.7228 13.9673 68.3489 12.8168 68.3489ZM41.7508 55.325C40.6003 55.325 39.4969 55.6989 38.6834 56.3644C37.8699 57.0299 37.4129 57.9326 37.4129 58.8737V91.4512C37.4129 92.3924 37.8699 93.2951 38.6834 93.9606C39.4969 94.6261 40.6003 95 41.7508 95C42.9013 95 44.0047 94.6261 44.8182 93.9606C45.6317 93.2951 46.0887 92.3924 46.0887 91.4512V58.8737C46.0887 57.9326 45.6317 57.0299 44.8182 56.3644C44.0047 55.6989 42.9013 55.325 41.7508 55.325ZM70.7281 35.7714C69.5776 35.7714 68.4743 36.1453 67.6608 36.8108C66.8472 37.4763 66.3902 38.3789 66.3902 39.3201V91.4158C66.3902 92.3569 66.8472 93.2596 67.6608 93.9251C68.4743 94.5906 69.5776 94.9645 70.7281 94.9645C71.8786 94.9645 72.982 94.5906 73.7955 93.9251C74.609 93.2596 75.066 92.3569 75.066 91.4158V39.3201C75.066 38.3789 74.609 37.4763 73.7955 36.8108C72.982 36.1453 71.8786 35.7714 70.7281 35.7714ZM99.6621 22.7475C98.5116 22.7475 97.4082 23.1214 96.5947 23.7869C95.7812 24.4524 95.3242 25.355 95.3242 26.2962V91.4158C95.3242 92.3569 95.7812 93.2596 96.5947 93.9251C97.4082 94.5906 98.5116 94.9645 99.6621 94.9645C100.813 94.9645 101.916 94.5906 102.729 93.9251C103.543 93.2596 104 92.3569 104 91.4158V26.2962C104 25.355 103.543 24.4524 102.729 23.7869C101.916 23.1214 100.813 22.7475 99.6621 22.7475ZM99.879 0L83.0478 3.1229L86.041 5.74897C59.591 25.5339 31.1492 43.4594 1.01769 59.3351C0.0455303 59.8386 -0.642306 60.6375 -0.894496 61.5559C-1.14669 62.4743 -0.942575 63.437 -0.327064 64.2323C0.288448 65.0276 1.26494 65.5903 2.3876 65.7967C3.51025 66.003 4.68711 65.836 5.65927 65.3325C36.2365 49.2395 65.0993 31.0646 91.9406 11.0011L94.847 13.5207L99.879 0Z" fill="black"/>
</g>
<defs>
<clipPath id="clip0_122_1113">
<rect width="104.308" height="95" fill="white"/>
</clipPath>
</defs>
</svg>
