<svg width="105" height="97" viewBox="0 0 105 97" fill="none" xmlns="http://www.w3.org/2000/svg">
<g clip-path="url(#clip0_83_516)">
<path d="M104.28 48.3958C104.28 51.8053 101.563 54.4761 98.484 54.4761H92.6876L92.8144 84.8205C92.8144 85.332 92.7782 85.8434 92.7238 86.3548V89.4234C92.7238 93.6095 89.4815 97 85.4784 97H82.5802C82.3809 97 82.1817 97 81.9824 96.9811C81.7288 97 81.4752 97 81.2216 97L75.3347 96.9811H70.9874C66.9843 96.9811 63.742 93.5905 63.742 89.4044V72.7358C63.742 69.3831 61.1517 66.6745 57.9456 66.6745H46.3529C43.1467 66.6745 40.5565 69.3831 40.5565 72.7358V89.4044C40.5565 93.5905 37.3141 96.9811 33.311 96.9811H23.1855C22.9138 96.9811 22.6421 96.9621 22.3704 96.9432C22.153 96.9621 21.9356 96.9811 21.7183 96.9811H18.8201C14.817 96.9811 11.5746 93.5905 11.5746 89.4044V68.1898C11.5746 68.0193 11.5746 67.8299 11.5927 67.6594V54.4571H5.79637C2.53591 54.4571 0 51.8053 0 48.3769C0 46.6721 0.54341 45.1568 1.81137 43.8309L48.2367 1.51533C49.5046 0.189416 50.9537 0 52.2217 0C53.4896 0 54.9387 0.378832 56.0255 1.32591L102.288 43.8498C103.737 45.1758 104.461 46.6911 104.28 48.3958Z" fill="black"/>
</g>
<defs>
<clipPath id="clip0_83_516">
<rect width="104.308" height="97" fill="white"/>
</clipPath>
</defs>
</svg>
