<svg width="101" height="91" viewBox="0 0 101 91" fill="none" xmlns="http://www.w3.org/2000/svg">
<path d="M85.0526 23.9474V38.2679C85.0526 38.2679 74.4742 38.3158 74.4211 38.2679V23.9474H58.4737C58.4737 23.9474 58.5268 14.4163 58.4737 14.3684H74.4211V0H85.0526V14.3684H101V23.9474H85.0526ZM69.1053 43.1053V28.7368H53.1579V14.3684H10.6316C4.78421 14.3684 0 18.6789 0 23.9474V81.4211C0 86.6895 4.78421 91 10.6316 91H74.4211C80.2684 91 85.0526 86.6895 85.0526 81.4211V43.1053H69.1053ZM10.6316 81.4211L26.5789 62.2632L37.2105 76.6316L53.1579 57.4737L74.4211 81.4211H10.6316Z" fill="black"/>
</svg>
