<svg width="250" height="296" viewBox="0 0 250 296" fill="none" xmlns="http://www.w3.org/2000/svg">
<path fill-rule="evenodd" clip-rule="evenodd" d="M109.005 0.802349C77.7227 4.8099 47.7782 21.42 28.0557 45.7042C17.8117 58.3182 9.12204 75.0028 4.55906 90.8201C-0.809652 109.431 -1.48943 133.113 2.79965 152.118C8.99009 179.549 24.4055 204.625 45.7239 221.942C58.3367 232.187 75.0196 240.877 90.8354 245.441C109.445 250.81 133.124 251.49 152.127 247.2C179.555 241.009 204.629 225.592 221.944 204.272C232.188 191.658 240.878 174.973 245.441 159.156C250.81 140.545 251.489 116.863 247.2 97.8579C241.01 70.4274 225.595 45.3513 204.276 28.0344C189.195 15.7843 169.61 6.42302 150.917 2.53144C138.723 -0.00745978 121.024 -0.737287 109.005 0.802349Z" fill="#386DBD"/>
<path fill-rule="evenodd" clip-rule="evenodd" d="M85.1901 112.098C85.4325 148.384 85.4615 148.73 88.8634 155.851C92.1508 162.732 97.9739 167.264 106.474 169.56C112.155 171.094 122.332 171.083 127.771 169.536C136.027 167.189 141.541 162.753 144.77 155.861C148.112 148.729 148.146 148.311 148.395 112.098L148.619 79.4812H139.845H131.071L130.93 112.848L130.788 146.215L129.381 149.08C127.587 152.736 125.228 154.666 121.236 155.747C115.405 157.325 109.955 155.929 106.366 151.936C102.493 147.629 102.547 148.197 102.547 111.566V79.4812H93.7598H84.9717L85.1901 112.098ZM152.22 152.155C149.642 153.322 147.871 156.12 147.633 159.402C147.235 164.915 150.186 168.477 155.47 168.859C160.981 169.257 164.543 166.306 164.926 161.022C165.334 155.369 162.336 151.875 156.844 151.602C154.961 151.508 153.179 151.721 152.22 152.155Z" fill="#3A3132"/>
<path d="M24.72 295.576C20.272 295.576 16.784 294.296 14.256 291.736C11.728 289.176 10.464 285.656 10.464 281.176V261.592H16.8V281.032C16.8 284.104 17.488 286.376 18.864 287.848C20.24 289.288 22.192 290.008 24.72 290.008C27.28 290.008 29.232 289.272 30.576 287.8C31.952 286.296 32.64 284.04 32.64 281.032V261.592H38.976V281.176C38.976 285.656 37.712 289.176 35.184 291.736C32.656 294.296 29.168 295.576 24.72 295.576ZM61.4531 269.368C63.9811 269.368 66.0131 270.12 67.5491 271.624C69.1171 273.096 69.9011 275.048 69.9011 277.48V295H63.5651V281.08C63.5651 278.904 63.2291 277.352 62.5571 276.424C61.9171 275.464 60.8451 274.984 59.3411 274.984C57.6771 274.984 55.9171 275.912 54.0611 277.768V295H47.7251V275.512L46.6691 269.944H52.4771L53.3891 273.16C54.7651 271.816 56.0931 270.856 57.3731 270.28C58.6531 269.672 60.0131 269.368 61.4531 269.368ZM80.8763 266.2C79.7883 266.2 78.8603 265.832 78.0923 265.096C77.3243 264.36 76.9403 263.4 76.9403 262.216C76.9403 261.032 77.3243 260.072 78.0923 259.336C78.8603 258.6 79.7883 258.232 80.8763 258.232C81.9643 258.232 82.8923 258.6 83.6603 259.336C84.4283 260.072 84.8123 261.032 84.8123 262.216C84.8123 263.4 84.4283 264.36 83.6603 265.096C82.8923 265.832 81.9643 266.2 80.8763 266.2ZM84.0443 269.944V295H77.7083V269.992L84.0443 269.944ZM93.8494 295.576C92.6334 295.576 91.6094 295.176 90.7774 294.376C89.9454 293.576 89.5294 292.52 89.5294 291.208C89.5294 289.896 89.9454 288.84 90.7774 288.04C91.6094 287.24 92.6334 286.84 93.8494 286.84C95.0654 286.84 96.0894 287.24 96.9214 288.04C97.7534 288.84 98.1694 289.896 98.1694 291.208C98.1694 292.52 97.7534 293.576 96.9214 294.376C96.0894 295.176 95.0654 295.576 93.8494 295.576ZM111.358 267.16V275.512H125.758V280.744H111.358V289.432H126.814V295H105.022V261.592H126.814V267.16H111.358ZM157.421 269.944L148.157 295H140.285L131.021 269.944H137.453L144.317 289.72L151.181 269.944H157.421ZM183.103 284.392H165.679C165.935 286.312 166.639 287.784 167.791 288.808C168.975 289.832 170.543 290.344 172.495 290.344C173.935 290.344 175.487 290.088 177.151 289.576C178.847 289.032 180.415 288.296 181.855 287.368H182.047V292.504C180.767 293.496 179.295 294.264 177.631 294.808C175.999 295.32 174.271 295.576 172.447 295.576C169.823 295.576 167.535 295.048 165.583 293.992C163.631 292.936 162.127 291.416 161.071 289.432C160.015 287.448 159.487 285.128 159.487 282.472C159.487 279.88 159.983 277.592 160.975 275.608C161.999 273.624 163.423 272.088 165.247 271C167.071 269.912 169.183 269.368 171.583 269.368C173.919 269.368 175.951 269.896 177.679 270.952C179.439 272.008 180.783 273.528 181.711 275.512C182.639 277.496 183.103 279.816 183.103 282.472V284.392ZM171.583 274.456C170.079 274.456 168.815 274.952 167.791 275.944C166.799 276.936 166.127 278.312 165.775 280.072H176.575C176.319 278.248 175.775 276.856 174.943 275.896C174.111 274.936 172.991 274.456 171.583 274.456ZM203.484 269.368C206.012 269.368 208.044 270.12 209.58 271.624C211.148 273.096 211.932 275.048 211.932 277.48V295H205.596V281.08C205.596 278.904 205.26 277.352 204.588 276.424C203.948 275.464 202.876 274.984 201.372 274.984C199.708 274.984 197.948 275.912 196.092 277.768V295H189.756V275.512L188.7 269.944H194.508L195.42 273.16C196.796 271.816 198.124 270.856 199.404 270.28C200.684 269.672 202.044 269.368 203.484 269.368ZM227.468 269.944H233.228V274.648H227.468V286.744C227.468 289.176 228.396 290.392 230.252 290.392C231.116 290.392 232.124 290.088 233.276 289.48V294.712C232.476 295 231.724 295.208 231.02 295.336C230.348 295.496 229.58 295.576 228.716 295.576C223.66 295.576 221.132 292.632 221.132 286.744V274.648H217.484V269.944H221.132V263.224L227.468 261.016V269.944Z" fill="#3A3132"/>
</svg>
