<svg width="217" height="60" viewBox="0 0 217 60" fill="none" xmlns="http://www.w3.org/2000/svg">
<path d="M80.7 43.36C77.92 43.36 75.74 42.56 74.16 40.96C72.58 39.36 71.79 37.16 71.79 34.36V22.12H75.75V34.27C75.75 36.19 76.18 37.61 77.04 38.53C77.9 39.43 79.12 39.88 80.7 39.88C82.3 39.88 83.52 39.42 84.36 38.5C85.22 37.56 85.65 36.15 85.65 34.27V22.12H89.61V34.36C89.61 37.16 88.82 39.36 87.24 40.96C85.66 42.56 83.48 43.36 80.7 43.36ZM103.658 26.98C105.238 26.98 106.508 27.45 107.468 28.39C108.448 29.31 108.938 30.53 108.938 32.05V43H104.978V34.3C104.978 32.94 104.768 31.97 104.348 31.39C103.948 30.79 103.278 30.49 102.338 30.49C101.298 30.49 100.198 31.07 99.0382 32.23V43H95.0782V30.82L94.4182 27.34H98.0482L98.6182 29.35C99.4782 28.51 100.308 27.91 101.108 27.55C101.908 27.17 102.758 26.98 103.658 26.98ZM115.798 25C115.118 25 114.538 24.77 114.058 24.31C113.578 23.85 113.338 23.25 113.338 22.51C113.338 21.77 113.578 21.17 114.058 20.71C114.538 20.25 115.118 20.02 115.798 20.02C116.478 20.02 117.058 20.25 117.538 20.71C118.018 21.17 118.258 21.77 118.258 22.51C118.258 23.25 118.018 23.85 117.538 24.31C117.058 24.77 116.478 25 115.798 25ZM117.778 27.34V43H113.818V27.37L117.778 27.34ZM123.906 43.36C123.146 43.36 122.506 43.11 121.986 42.61C121.466 42.11 121.206 41.45 121.206 40.63C121.206 39.81 121.466 39.15 121.986 38.65C122.506 38.15 123.146 37.9 123.906 37.9C124.666 37.9 125.306 38.15 125.826 38.65C126.346 39.15 126.606 39.81 126.606 40.63C126.606 41.45 126.346 42.11 125.826 42.61C125.306 43.11 124.666 43.36 123.906 43.36ZM134.849 25.6V30.82H143.849V34.09H134.849V39.52H144.509V43H130.889V22.12H144.509V25.6H134.849ZM163.638 27.34L157.848 43H152.928L147.138 27.34H151.158L155.448 39.7L159.738 27.34H163.638ZM179.689 36.37H168.799C168.959 37.57 169.399 38.49 170.119 39.13C170.859 39.77 171.839 40.09 173.059 40.09C173.959 40.09 174.929 39.93 175.969 39.61C177.029 39.27 178.009 38.81 178.909 38.23H179.029V41.44C178.229 42.06 177.309 42.54 176.269 42.88C175.249 43.2 174.169 43.36 173.029 43.36C171.389 43.36 169.959 43.03 168.739 42.37C167.519 41.71 166.579 40.76 165.919 39.52C165.259 38.28 164.929 36.83 164.929 35.17C164.929 33.55 165.239 32.12 165.859 30.88C166.499 29.64 167.389 28.68 168.529 28C169.669 27.32 170.989 26.98 172.489 26.98C173.949 26.98 175.219 27.31 176.299 27.97C177.399 28.63 178.239 29.58 178.819 30.82C179.399 32.06 179.689 33.51 179.689 35.17V36.37ZM172.489 30.16C171.549 30.16 170.759 30.47 170.119 31.09C169.499 31.71 169.079 32.57 168.859 33.67H175.609C175.449 32.53 175.109 31.66 174.589 31.06C174.069 30.46 173.369 30.16 172.489 30.16ZM192.428 26.98C194.008 26.98 195.278 27.45 196.238 28.39C197.218 29.31 197.708 30.53 197.708 32.05V43H193.748V34.3C193.748 32.94 193.538 31.97 193.118 31.39C192.718 30.79 192.048 30.49 191.108 30.49C190.068 30.49 188.968 31.07 187.808 32.23V43H183.848V30.82L183.188 27.34H186.818L187.388 29.35C188.248 28.51 189.078 27.91 189.878 27.55C190.678 27.17 191.528 26.98 192.428 26.98ZM207.417 27.34H211.017V30.28H207.417V37.84C207.417 39.36 207.997 40.12 209.157 40.12C209.697 40.12 210.327 39.93 211.047 39.55V42.82C210.547 43 210.077 43.13 209.637 43.21C209.217 43.31 208.737 43.36 208.197 43.36C205.037 43.36 203.457 41.52 203.457 37.84V30.28H201.177V27.34H203.457V23.14L207.417 21.76V27.34Z" fill="#3A3132"/>
<path fill-rule="evenodd" clip-rule="evenodd" d="M26.1613 0.192564C18.6535 1.15438 11.4668 5.14079 6.73338 10.969C4.2748 13.9964 2.18929 18.0007 1.09417 21.7968C-0.194317 26.2635 -0.357462 31.947 0.671915 36.5083C2.15762 43.0917 5.85731 49.1099 10.9737 53.266C14.0008 55.7248 18.0047 57.8105 21.8005 58.9057C26.2667 60.1943 31.9497 60.3575 36.5106 59.328C43.0933 57.8422 49.111 54.1421 53.2666 49.0252C55.7252 45.9979 57.8107 41.9936 58.9058 38.1974C60.1943 33.7308 60.3575 28.0472 59.3281 23.4859C57.8424 16.9026 54.1427 10.8843 49.0263 6.72826C45.4068 3.78823 40.7063 1.54152 36.2202 0.607546C33.2936 -0.00179035 29.0458 -0.176949 26.1613 0.192564Z" fill="#386DBD"/>
<path fill-rule="evenodd" clip-rule="evenodd" d="M20.4456 26.9036C20.5038 35.6123 20.5108 35.6952 21.3272 37.4042C22.1162 39.0556 23.5137 40.1435 25.5538 40.6944C26.9171 41.0626 29.3596 41.0598 30.6652 40.6886C32.6464 40.1254 33.9699 39.0606 34.7449 37.4066C35.5468 35.6949 35.5551 35.5947 35.6147 26.9036L35.6685 19.0755H33.5628H31.4571L31.4232 27.0836L31.3891 35.0917L31.0516 35.7791C30.6208 36.6566 30.0548 37.1198 29.0966 37.3792C27.6971 37.7581 26.3893 37.423 25.5279 36.4647C24.5984 35.4309 24.6114 35.5674 24.6114 26.7757V19.0755H22.5024H20.3932L20.4456 26.9036ZM36.5329 36.5172C35.914 36.7973 35.489 37.4688 35.432 38.2566C35.3364 39.5795 36.0448 40.4344 37.3128 40.5262C38.6356 40.6218 39.4904 39.9134 39.5822 38.6453C39.6803 37.2886 38.9608 36.4499 37.6426 36.3844C37.1906 36.3618 36.7631 36.4131 36.5329 36.5172Z" fill="#3A3132"/>
</svg>
