<svg width="30" height="30" viewBox="0 0 30 30" fill="none" xmlns="http://www.w3.org/2000/svg">
<path d="M22.5 12.75C22.5 14.9016 21.8016 16.8891 20.625 18.5016L26.5594 24.4406C27.1453 25.0266 27.1453 25.9781 26.5594 26.5641C25.9734 27.15 25.0219 27.15 24.4359 26.5641L18.5016 20.625C16.8891 21.8016 14.9016 22.5 12.75 22.5C7.36406 22.5 3 18.1359 3 12.75C3 7.36406 7.36406 3 12.75 3C18.1359 3 22.5 7.36406 22.5 12.75ZM12.75 19.5C16.4766 19.5 19.5 16.4766 19.5 12.75C19.5 9.02344 16.4766 6 12.75 6C9.02344 6 6 9.02344 6 12.75C6 16.4766 9.02344 19.5 12.75 19.5Z" fill="black"/>
</svg>
