<svg width="100" height="100" viewBox="0 0 100 100" fill="none" xmlns="http://www.w3.org/2000/svg">
<path d="M4.21874 28.4375L8.67187 53.7031C10.8594 66.125 20.5937 75.8594 33.0156 78.0469L35 78.3906C32.4219 73.9219 30.7656 68.9063 30.2187 63.625L26.4531 64.2969C24.9375 64.5625 23.5156 63.3906 23.8125 61.875C24.5625 58.0156 26.7969 54.5938 30.0156 52.3594V40.7031C29.7969 40.8281 29.5469 40.9063 29.2812 40.9531L19.4375 42.6875C18.0781 42.9219 16.7344 42 16.9531 40.6406C17.4375 37.5781 19.8281 35.0156 23.0625 34.4375C25.75 33.9688 28.3594 34.9844 30.0312 36.9063V33.3594C30.0312 29.8438 31.1094 25.1719 35.0781 21.8906C39.1406 18.5313 45.6562 15.0313 54.5937 13.4219C49.8281 10.875 41.1094 8.4219 29 10.5469C16.4531 12.7656 8.99999 18.375 5.54687 22.4375C4.14062 24.0781 3.85937 26.3281 4.23437 28.4531L4.21874 28.4375ZM37.5 31.6719V58.9844C37.5 71.5938 45.3906 82.875 57.25 87.1719L61.5781 88.75C63.7812 89.5469 66.2031 89.5469 68.4062 88.75L72.75 87.1875C84.6094 82.875 92.5 71.6094 92.5 58.9844V31.6719C92.5 30.5938 92.1719 29.5156 91.4062 28.7656C87.875 25.25 79.1875 20.0156 65 20.0156C50.8125 20.0156 42.125 25.2656 38.5937 28.7656C37.8281 29.5313 37.5 30.5938 37.5 31.6719ZM47.8281 60.9063C47.6094 59.8125 48.9219 59.1875 49.8125 59.875C54.0156 63.0938 59.2812 65.0156 65 65.0156C70.7187 65.0156 75.9687 63.0938 80.1875 59.875C81.0781 59.1875 82.3906 59.8125 82.1719 60.9063C80.5937 68.9375 73.5 75.0156 65 75.0156C56.5 75.0156 49.4062 68.9531 47.8281 60.9063ZM47.9062 45.0469C48.9375 42.1094 51.7187 40 55 40C58.2812 40 61.0781 42.1094 62.0937 45.0469C62.5469 46.3594 61.3906 47.5 60 47.5H50C48.625 47.5 47.4531 46.3438 47.9062 45.0469ZM80 47.5H70C68.625 47.5 67.4531 46.3438 67.9062 45.0469C68.9219 42.1094 71.7187 40 75 40C78.2812 40 81.0781 42.1094 82.0937 45.0469C82.5469 46.3594 81.3906 47.5 80 47.5Z" fill="black"/>
</svg>
