<svg width="100" height="100" viewBox="0 0 100 100" fill="none" xmlns="http://www.w3.org/2000/svg">
<path d="M50 10C41.7188 10 35 16.7188 35 25V45C35 53.2812 41.7188 60 50 60C58.2812 60 65 53.2812 65 45V25C65 16.7188 58.2812 10 50 10ZM27.5 38.75C27.5 36.6719 25.8281 35 23.75 35C21.6719 35 20 36.6719 20 38.75V45C20 60.2969 31.4531 72.9219 46.25 74.7656V82.5H38.75C36.6719 82.5 35 84.1719 35 86.25C35 88.3281 36.6719 90 38.75 90H61.25C63.3281 90 65 88.3281 65 86.25C65 84.1719 63.3281 82.5 61.25 82.5H53.75V74.7656C68.5469 72.9219 80 60.2969 80 45V38.75C80 36.6719 78.3281 35 76.25 35C74.1719 35 72.5 36.6719 72.5 38.75V45C72.5 57.4219 62.4219 67.5 50 67.5C37.5781 67.5 27.5 57.4219 27.5 45V38.75Z" fill="black"/>
</svg>
