<svg width="100" height="100" viewBox="0 0 100 100" fill="none" xmlns="http://www.w3.org/2000/svg">
<path d="M83.125 11.0937C84.3125 12.0469 85 13.4844 85 15V62.5C85 69.4062 78.2812 75 70 75C61.7188 75 55 69.4062 55 62.5C55 55.5937 61.7188 50 70 50C71.75 50 73.4375 50.25 75 50.7187V32.4844L40 40.2656V72.5C40 79.4062 33.2812 85 25 85C16.7188 85 10 79.4062 10 72.5C10 65.5937 16.7188 60 25 60C26.75 60 28.4375 60.25 30 60.7187V25C30 22.6562 31.625 20.625 33.9219 20.125L78.9219 10.125C80.4062 9.79686 81.9531 10.1562 83.1406 11.1094L83.125 11.0937Z" fill="black"/>
</svg>
