<svg width="100" height="100" viewBox="0 0 100 100" fill="none" xmlns="http://www.w3.org/2000/svg">
<g clip-path="url(#clip0_11_167)">
<path d="M30 22.5C34.8281 22.5 38.75 18.5781 38.75 13.75C38.75 8.92188 34.8281 5 30 5C25.1719 5 21.25 8.92188 21.25 13.75C21.25 18.5781 25.1719 22.5 30 22.5ZM27.5 90V65C27.5 63.625 28.625 62.5 30 62.5C31.375 62.5 32.5 63.625 32.5 65V90C32.5 92.7656 34.7344 95 37.5 95C40.2656 95 42.5 92.7656 42.5 90V37.5H62.5C65.2656 37.5 67.5 35.2656 67.5 32.5C67.5 29.7344 65.2656 27.5 62.5 27.5H60V20H90V50H60V45H50V52.5C50 56.6406 53.3594 60 57.5 60H92.5C96.6406 60 100 56.6406 100 52.5V17.5C100 13.3594 96.6406 10 92.5 10H57.5C53.3594 10 50 13.3594 50 17.5V27.5H30.8281C23.7031 27.5 17 30.875 12.7656 36.5938L2.23439 50.7656C0.593762 52.9844 1.04689 56.1094 3.26564 57.7656C5.48439 59.4219 8.60939 58.9531 10.2656 56.7344L17.5 46.9844V90C17.5 92.7656 19.7344 95 22.5 95C25.2656 95 27.5 92.7656 27.5 90Z" fill="black"/>
</g>
<defs>
<clipPath id="clip0_11_167">
<rect width="100" height="100" fill="white"/>
</clipPath>
</defs>
</svg>
