<svg width="100" height="100" viewBox="0 0 100 100" fill="none" xmlns="http://www.w3.org/2000/svg">
<path d="M55.0781 5C59.9063 5 63.8281 8.92188 63.8281 13.75C63.8281 18.5781 59.9063 22.5 55.0781 22.5C50.25 22.5 46.3281 18.5781 46.3281 13.75C46.3281 8.92188 50.25 5 55.0781 5ZM34.3125 37.5C33.7969 37.5 33.3438 37.8125 33.1563 38.2812L29.7188 46.8594C28.6875 49.4219 25.7813 50.6719 23.2188 49.6406C20.6563 48.6094 19.4063 45.7031 20.4375 43.1406L23.8594 34.5625C25.5781 30.2969 29.7031 27.5 34.3125 27.5H49.5156C53.9688 27.5 58.0781 29.8594 60.3125 33.7031L65.4375 42.5H75.0625C77.8281 42.5 80.0625 44.7344 80.0625 47.5C80.0625 50.2656 77.8281 52.5 75.0625 52.5H65.4375C61.875 52.5 58.5938 50.6094 56.7969 47.5312L55.2344 44.8594L52 55.8594L63.7813 59.3906C68.1094 60.6875 70.3125 65.4844 68.4844 69.625L59.6406 89.5312C58.5156 92.0625 55.5625 93.1875 53.0469 92.0625C50.5313 90.9375 49.3906 87.9844 50.5156 85.4688L58.2031 68.1562L43.2188 63.6562C38.1094 62.125 35.0938 56.8281 36.3906 51.6562L39.9375 37.5H34.3281H34.3125ZM33.0625 65.7812C35.1406 68.1094 37.8594 69.8906 41.0625 70.8438L41.7969 71.0625L40.7188 74.0781C39.8125 76.625 38.2188 78.8906 36.1406 80.6094L23.2656 91.2188C21.1406 92.9688 17.9844 92.6719 16.2344 90.5469C14.4844 88.4219 14.7813 85.2656 16.9063 83.5156L29.7813 72.9062C30.4844 72.3281 31 71.5781 31.3125 70.7344L33.0625 65.7812Z" fill="black"/>
</svg>
