<svg width="106" height="105" viewBox="0 0 106 105" fill="none" xmlns="http://www.w3.org/2000/svg">
<g clip-path="url(#clip0_83_543)">
<path d="M52.6539 105C38.6128 105 25.4494 99.75 15.3574 89.6875C-5.26537 69.125 -5.26537 35.875 15.3574 15.3125C25.4494 5.25 38.6128 0 52.6539 0C66.6949 0 79.8584 5.25 89.9503 15.3125C110.573 35.875 110.573 69.125 89.9503 89.6875C79.8584 99.75 66.6949 105 52.6539 105ZM52.6539 8.75C40.8067 8.75 29.8372 13.125 21.5003 21.4375C4.38784 38.5 4.38784 66.5 21.5003 83.5625C29.8372 91.875 40.8067 96.25 52.6539 96.25C64.501 96.25 75.4705 91.875 83.8074 83.5625C100.92 66.5 100.92 38.9375 83.8074 21.875C75.4705 13.125 64.501 8.75 52.6539 8.75Z" fill="black"/>
<path d="M52.6539 78.75C50.0212 78.75 48.2661 77 48.2661 74.375V30.625C48.2661 28 50.0212 26.25 52.6539 26.25C55.2866 26.25 57.0417 28 57.0417 30.625V74.375C57.0417 77 55.2866 78.75 52.6539 78.75Z" fill="black"/>
<path d="M74.5929 56.875H30.7147C28.082 56.875 26.3269 55.125 26.3269 52.5C26.3269 49.875 28.082 48.125 30.7147 48.125H74.5929C77.2256 48.125 78.9808 49.875 78.9808 52.5C78.9808 55.125 77.2256 56.875 74.5929 56.875Z" fill="black"/>
</g>
<defs>
<clipPath id="clip0_83_543">
<rect width="105.308" height="105" fill="white"/>
</clipPath>
</defs>
</svg>
