<svg width="100" height="100" viewBox="0 0 100 100" fill="none" xmlns="http://www.w3.org/2000/svg">
<path d="M14.2031 42.3282L10.5781 79.5157C10.2812 82.4531 12.5937 85 15.5468 85H42.5312C46.6718 85 50.0312 81.6407 50.0312 77.5V57.3438C50.0312 56.0469 51.0781 55 52.375 55C53.2343 55 54.0312 55.4688 54.4375 56.2344L67.8906 81.0782C69.2031 83.5 71.7343 85 74.4843 85H84.5C87.4531 85 89.7656 82.4531 89.4687 79.5157L85.8749 42.3594C85.5781 39.2969 83.8749 36.5313 81.2656 34.8907L53.8906 17.5469C51.4375 15.9844 48.2968 16 45.8437 17.5625L18.7656 34.875C16.1875 36.5313 14.5 39.2813 14.2031 42.3282Z" fill="black"/>
</svg>
